<svg width="760" height="560" viewBox="0 0 760 560" fill="none" xmlns="http://www.w3.org/2000/svg">
  <defs>
    <radialGradient id="consoleGlow" cx="0" cy="0" r="1" gradientUnits="userSpaceOnUse" gradientTransform="translate(430 218) rotate(127.776) scale(246.35 252.112)">
      <stop stop-color="#98D8FF" stop-opacity="0.6"/>
      <stop offset="0.44" stop-color="#5A92C2" stop-opacity="0.19"/>
      <stop offset="1" stop-color="#0A121B" stop-opacity="0"/>
    </radialGradient>
  </defs>
  <rect width="760" height="560" rx="40" fill="#08111A"/>
  <circle cx="430" cy="218" r="224" fill="url(#consoleGlow)"/>
  <path d="M132 348C204 281 343 244 460 267C564 287 628 344 684 418" stroke="#DDF1FF" stroke-opacity="0.14" stroke-width="2"/>
  <path d="M111 412C213 333 384 306 518 340C603 362 667 406 707 459" stroke="#9FD9FF" stroke-opacity="0.18" stroke-width="2"/>
  <ellipse cx="426" cy="216" rx="168" ry="116" stroke="#CDEBFF" stroke-opacity="0.2" stroke-width="2"/>
  <ellipse cx="426" cy="216" rx="120" ry="82" stroke="#CDEBFF" stroke-opacity="0.24" stroke-width="2"/>
  <ellipse cx="426" cy="216" rx="70" ry="48" stroke="#F4FAFF" stroke-opacity="0.82" stroke-width="5"/>
  <circle cx="426" cy="216" r="10" fill="#F7FBFF"/>
  <rect x="88" y="82" width="418" height="316" rx="32" fill="#0D1823" fill-opacity="0.68" stroke="#D7EDFF" stroke-opacity="0.12"/>
  <rect x="118" y="110" width="168" height="110" rx="24" fill="#0F1B27" fill-opacity="0.82" stroke="#D7EDFF" stroke-opacity="0.08"/>
  <rect x="304" y="110" width="170" height="110" rx="24" fill="#0F1B27" fill-opacity="0.82" stroke="#D7EDFF" stroke-opacity="0.08"/>
  <rect x="118" y="242" width="356" height="126" rx="28" fill="#0F1B27" fill-opacity="0.72" stroke="#D7EDFF" stroke-opacity="0.08"/>
  <path d="M146 145H246" stroke="#EDF6FF" stroke-opacity="0.76" stroke-width="5" stroke-linecap="round"/>
  <path d="M146 176H226" stroke="#CDEBFF" stroke-opacity="0.34" stroke-width="4" stroke-linecap="round"/>
  <path d="M332 145H428" stroke="#EDF6FF" stroke-opacity="0.76" stroke-width="5" stroke-linecap="round"/>
  <path d="M332 176H404" stroke="#CDEBFF" stroke-opacity="0.34" stroke-width="4" stroke-linecap="round"/>
  <path d="M145 277H372" stroke="#EDF6FF" stroke-opacity="0.76" stroke-width="5" stroke-linecap="round"/>
  <path d="M145 308H346" stroke="#CDEBFF" stroke-opacity="0.34" stroke-width="4" stroke-linecap="round"/>
  <path d="M145 335H294" stroke="#CDEBFF" stroke-opacity="0.22" stroke-width="4" stroke-linecap="round"/>
  <rect x="535" y="128" width="138" height="88" rx="24" fill="#0F1B27" fill-opacity="0.74" stroke="#D7EDFF" stroke-opacity="0.08"/>
  <rect x="535" y="238" width="138" height="88" rx="24" fill="#0F1B27" fill-opacity="0.74" stroke="#D7EDFF" stroke-opacity="0.08"/>
  <rect x="535" y="348" width="138" height="88" rx="24" fill="#0F1B27" fill-opacity="0.74" stroke="#D7EDFF" stroke-opacity="0.08"/>
</svg>
